<?xml version="1.0" standalone="no"?>
<!DOCTYPE svg PUBLIC "-//W3C//DTD SVG 20010904//EN"
 "http://www.w3.org/TR/2001/REC-SVG-20010904/DTD/svg10.dtd">
<svg version="1.0" xmlns="http://www.w3.org/2000/svg"
 width="719.000000pt" height="719.000000pt" viewBox="0 0 719.000000 719.000000"
 preserveAspectRatio="xMidYMid meet">
<metadata>
Created by potrace 1.11, written by Peter Selinger 2001-2013
</metadata>
<g transform="translate(0.000000,719.000000) scale(0.100000,-0.100000)"
fill="#000000" stroke="none">
<path d="M1665 7098 c0 -105 -13 -155 -49 -182 -14 -11 -101 -58 -195 -106
-393 -203 -576 -386 -609 -611 -11 -73 10 -175 51 -254 77 -145 397 -396 582
-455 22 -7 102 -39 178 -71 75 -32 183 -72 240 -88 102 -30 371 -92 457 -106
25 -4 54 -9 65 -11 11 -3 54 -9 95 -15 41 -5 86 -12 100 -14 14 -2 52 -7 85
-10 33 -3 71 -8 85 -10 142 -23 1154 -23 1530 0 90 5 223 16 260 20 19 2 64 7
100 10 80 7 123 12 225 25 44 6 98 13 120 16 22 3 65 9 95 14 30 5 78 12 105
15 28 3 57 8 65 10 8 3 33 7 55 10 132 20 220 38 285 60 67 23 101 38 245 114
22 11 78 38 125 60 105 48 189 110 274 202 76 82 106 131 136 218 79 236 -64
520 -362 717 -53 35 -98 64 -100 64 -5 0 -250 147 -290 173 -14 10 -33 35 -41
55 -12 31 -43 162 -52 222 -1 12 -20 16 -85 18 l-82 3 6 -26 c14 -54 -7 -72
-109 -91 -11 -2 -42 -8 -70 -14 -78 -16 -88 -18 -145 -25 -29 -4 -60 -8 -69
-10 -9 -1 -45 -6 -81 -9 -36 -4 -81 -9 -100 -11 -19 -2 -71 -7 -115 -10 -44
-3 -109 -7 -145 -10 -354 -26 -1087 -26 -1294 0 -16 2 -68 7 -115 10 -47 4
-98 8 -114 10 -15 2 -55 6 -90 10 -34 3 -78 8 -97 10 -19 3 -55 7 -80 10 -25
2 -61 7 -80 10 -19 2 -55 7 -80 10 -56 8 -67 9 -220 35 -255 43 -429 76 -463
89 -16 6 -74 11 -130 11 l-102 0 0 -92z m-17 -470 c2 -71 6 -98 17 -101 7 -3
59 -7 114 -8 103 -2 261 -28 436 -74 125 -32 130 -34 185 -45 25 -5 54 -11 65
-14 67 -15 281 -57 340 -66 39 -6 81 -13 95 -15 39 -6 129 -18 239 -30 30 -4
84 -9 120 -11 79 -4 627 -4 691 0 158 12 229 18 255 21 17 2 57 7 90 10 33 3
71 8 85 10 14 2 61 9 105 14 80 11 198 28 245 36 14 2 54 9 90 15 86 13 106
17 230 40 58 10 121 22 140 25 19 3 69 12 110 20 41 8 89 16 105 19 72 11 135
28 145 41 7 9 12 49 11 105 -1 109 0 110 122 47 204 -106 396 -267 484 -404
99 -153 77 -293 -68 -435 -137 -135 -336 -245 -594 -329 -33 -11 -67 -22 -76
-24 -9 -2 -47 -12 -85 -23 -179 -53 -381 -99 -554 -128 -25 -4 -47 -8 -50 -9
-4 -1 -78 -12 -140 -20 -8 -1 -46 -5 -85 -9 -38 -4 -81 -9 -95 -11 -14 -2 -61
-7 -105 -10 -44 -4 -96 -8 -115 -10 -253 -25 -819 -25 -1040 0 -19 2 -65 6
-102 10 -37 3 -77 8 -90 10 -13 2 -48 6 -78 9 -30 4 -66 8 -80 11 -14 2 -43 6
-65 10 -88 12 -117 17 -260 45 -60 12 -121 23 -135 26 -68 13 -309 79 -420
115 -260 85 -533 203 -658 287 -68 44 -75 49 -166 128 -170 145 -184 323 -37
471 61 62 110 106 147 129 16 10 31 21 34 24 25 30 356 201 380 197 12 -2 16
-22 18 -99z"/>
<path d="M1390 5098 c-28 -15 -70 -92 -100 -188 -23 -71 -26 -121 -35 -535 -5
-238 -13 -474 -20 -560 -14 -201 -20 -368 -18 -580 3 -497 12 -1232 17 -1310
10 -178 -56 -163 -225 50 -126 160 -153 179 -185 129 -20 -30 -28 -88 -28
-204 -1 -253 84 -432 259 -549 76 -51 148 -79 275 -107 161 -36 249 -113 350
-305 60 -114 75 -134 200 -264 159 -165 235 -273 331 -471 38 -79 77 -148 87
-153 10 -5 171 -12 357 -16 187 -4 421 -8 520 -10 530 -10 1340 -20 1434 -16
37 1 92 50 121 106 29 58 114 191 167 263 71 97 196 222 317 317 101 81 190
166 331 316 l80 86 158 58 c86 31 183 74 215 94 151 99 251 276 286 508 14
100 12 235 -6 270 -26 52 -50 42 -228 -96 -179 -141 -250 -188 -274 -183 -22
5 -20 26 20 252 8 47 35 186 59 310 24 124 48 266 53 315 9 95 8 550 -2 770
-4 72 -9 191 -11 265 -3 74 -8 178 -10 230 -2 52 -7 154 -9 225 -3 72 -8 164
-11 205 -2 41 -7 127 -10 190 -8 179 -12 213 -41 395 -15 94 -22 114 -45 137
-21 21 -35 27 -58 24 -46 -5 -69 -31 -92 -105 -25 -81 -23 -73 -53 -227 -12
-58 -24 -187 -31 -324 -27 -520 -30 -595 -40 -910 -8 -295 -12 -346 -41 -495
-38 -197 -158 -522 -221 -603 l-18 -22 -154 212 c-251 344 -322 420 -461 496
-125 68 -290 93 -432 66 -84 -16 -116 -32 -203 -103 -287 -234 -297 -241 -342
-241 -33 0 -70 22 -413 250 -146 97 -287 190 -313 207 -123 81 -253 93 -370
35 -95 -48 -146 -102 -257 -277 -35 -55 -115 -181 -178 -280 -127 -200 -188
-293 -226 -344 l-25 -33 -44 88 c-74 148 -137 327 -181 514 -24 103 -28 124
-41 225 -4 28 -9 61 -11 75 -19 119 -21 342 -12 1065 6 486 -12 704 -61 749
-25 22 -72 29 -101 14z m4193 -1521 c-2 -676 -1 -632 -8 -625 -12 11 -20 278
-19 633 0 390 9 595 27 595 1 0 1 -271 0 -603z m-4236 412 c15 -154 7 -827
-12 -991 -2 -18 -7 -78 -10 -133 -13 -171 -12 -165 -23 -165 -5 0 -8 42 -6 93
1 50 5 236 9 412 4 176 9 374 10 440 2 66 4 185 6 265 2 135 5 167 15 157 2
-2 7 -37 11 -78z m4468 -90 c4 -25 10 -109 22 -309 11 -197 5 -611 -12 -780
-3 -29 -16 -246 -18 -287 0 -7 -5 -13 -11 -13 -8 0 -11 83 -12 268 -1 264 -14
1074 -18 1122 -1 14 2 31 8 38 12 17 35 -4 41 -39z m-3004 -686 c40 -19 95
-61 87 -68 -2 -1 -61 -5 -133 -8 -144 -7 -221 -23 -307 -67 l-58 -30 15 31
c30 58 114 129 181 153 53 19 159 14 215 -11z m631 -419 c151 -87 167 -98 150
-110 -70 -49 -172 -3 -294 133 -49 54 -58 73 -36 73 7 0 88 -43 180 -96z
m-2444 -921 c20 -41 12 -57 -45 -93 -60 -38 -81 -39 -81 -2 0 15 -2 66 -3 113
-2 70 1 92 15 114 l18 27 40 -63 c23 -35 47 -78 56 -96z m3530 120 c78 -48 59
-54 -57 -15 -61 20 -111 41 -111 46 0 20 121 -2 168 -31z m-953 -98 c43 -115
74 -161 121 -181 48 -20 98 -19 194 4 229 56 346 67 488 46 47 -7 123 -15 171
-18 47 -3 101 -11 120 -17 41 -14 133 -66 144 -83 28 -42 -100 -264 -214 -370
-131 -121 -266 -159 -434 -122 -103 22 -172 68 -399 264 -71 61 -107 80 -169
88 -62 9 -109 -15 -252 -131 -211 -170 -293 -213 -412 -219 -143 -7 -206 24
-541 261 -73 52 -137 104 -142 116 -10 29 18 60 73 80 66 24 178 56 222 62 22
3 47 8 55 11 8 3 67 7 130 9 126 4 221 -11 299 -47 65 -30 177 -33 238 -7 85
36 119 72 176 187 78 156 88 174 92 170 2 -1 20 -48 40 -103z m2615 -71 c0
-46 -2 -84 -6 -84 -14 0 -74 57 -74 71 0 23 59 111 70 104 6 -3 10 -44 10 -91z
m-3648 -52 c4 -4 -46 -25 -113 -46 -66 -21 -123 -35 -127 -32 -11 12 52 55
103 70 82 25 118 27 137 8z m-993 -327 c108 -114 213 -284 131 -212 -65 58
-220 254 -220 279 0 20 23 2 89 -67z m2143 -62 c2 -5 60 -59 131 -121 70 -63
127 -118 127 -123 0 -16 -74 -10 -108 9 -76 41 -205 203 -186 233 6 11 31 12
36 2z m1813 -240 c-56 -88 -220 -271 -232 -259 -8 8 72 107 176 218 69 73 83
84 56 41z"/>
<path d="M2644 4617 c-58 -47 -92 -86 -104 -121 -47 -143 25 -310 159 -369
106 -47 179 -6 201 114 9 49 7 67 -24 176 -41 148 -58 175 -136 210 -49 22
-58 21 -96 -10z"/>
<path d="M4265 4532 c-40 -4 -103 -26 -142 -49 -48 -27 -70 -79 -51 -116 12
-23 65 -46 92 -41 52 10 103 17 119 16 15 -1 90 -27 337 -118 48 -18 86 -17
105 3 37 36 -6 157 -71 199 -28 19 -254 91 -319 102 -22 4 -53 6 -70 4z"/>
</g>
</svg>
