<svg id="Layer_1" data-name="Layer 1" xmlns="http://www.w3.org/2000/svg" viewBox="0 0 559.86 718.33"><defs><style>.cls-1{fill:#030303;}</style></defs><title>bill</title><path class="cls-1" d="M1974.49,262.12c11.88,20.76,9.93,41-5.71,59.11-10,11.53-21.75,20.4-36.18,25.78-5.42,2-10.44,5.15-15.54,7.95-11,6-22.75,9.26-35,11.06-17.46,2.57-34.84,5.79-52.37,7.77-22.82,2.57-45.72,5.19-68.65,6-36.27,1.3-72.6,2-108.88,1.34a480.42,480.42,0,0,1-99-12.32c-17-3.9-33.95-8.11-49.83-15.79-7-3.39-14.66-5.47-21.83-8.58a86.54,86.54,0,0,1-12.58-7.08c-14.24-9.29-28.53-18.59-37.94-33.38-10.07-15.81-9-34.46,2.19-49.55,11.64-15.66,27.18-26.27,44.14-35.15,7.51-3.94,15-7.94,22.74-11.45,6.16-2.8,9.4-7.13,9.55-13.86.13-5.66.32-11.32.48-17h20c1.78.79,3.5,2,5.37,2.31,20.62,3.72,41.18,8,61.94,10.81,53.63,7.27,107.43,11.79,161.68,9.31,38.08-1.73,76.15-3,113.52-11.53,7.93-1.81,8.88-3.22,6.49-10.9h16c1.48,7.45,2.64,15,4.61,22.3.78,2.9,2.81,6.23,5.26,7.77,13,8.16,26.46,15.46,39.34,23.73A90.62,90.62,0,0,1,1974.49,262.12Zm-21.44,51.51c16.33-15.37,17.19-31.94,3.08-49.5-12.91-16.07-29.35-27.36-47.6-36.4-10.07-5-10-5.1-9.57,6.17.44,11.47.47,11.61-10.69,13.63-26.55,4.79-53,9.94-79.7,14-34.59,5.25-69.34,9.42-109.79,8.41-36,1.2-76.3-5.22-116.44-14.23-23.15-5.19-45.88-13.34-70.2-11.86-3,.18-4.09-1.55-4-4.41.1-4.17,0-8.34,0-12.5.08-3.84-1.5-4.81-4.93-3.25-19.33,8.81-38,18.62-53.21,33.92-12.23,12.34-15.41,29.46-1.15,43.83,11.57,11.66,25,20.36,39.79,27.21,51.39,23.86,105.85,35.62,161.93,41.21a594,594,0,0,0,95.32,2c25.72-1.57,51.51-3.89,76.91-8.08,22.42-3.7,44.6-9.59,66.42-16.09C1912.63,340.68,1934.88,330.73,1953.05,313.63Z" transform="translate(-1422.3 -177)"/><path class="cls-1" d="M1527.12,659.36c2.75-3.6,4.88-6,6.6-8.7,14.49-22.56,28.75-45.28,43.44-67.7,5.43-8.29,12.48-15,22.19-18.65,13.27-5,24.58-.54,35.37,6.43,14.55,9.39,28.82,19.22,43.24,28.81,6.66,4.42,13.39,8.74,20.11,13.07,6.17,4,10.18,3.77,15.91-.85,10-8,20-16,29.87-24.25,6.07-5.09,13.16-7,20.72-7.64,24.44-2.06,44.7,7,60.21,25.27,12,14.2,22.45,29.75,33.56,44.72,2,2.64,3.8,5.37,6.24,8.82a47.39,47.39,0,0,0,3.75-5.29c14-28.21,23.09-57.54,23.78-89.48.81-37.79,2.81-75.57,4.81-113.33,1-18.12,3-36.18,9.15-53.5,1.41-4,3.11-7.65,7.9-7.82,5.3-.18,8.12,3.71,8.88,8,2.08,11.92,4.25,23.93,4.91,36q3.35,61.13,5.56,122.29c.87,24.46,2,49,.64,73.41-1,18-6,35.7-9.11,53.54-2.06,11.61-4.13,23.22-6.06,34.85-.22,1.31.23,3.86.71,3.95,1.62.29,3.76.27,5-.6,5.52-3.72,10.88-7.69,16.16-11.74,6.87-5.27,13.55-10.79,20.43-16,5.66-4.31,9.95-2.67,10.67,4.43a91.29,91.29,0,0,1-7.19,46.86c-5,11.41-12.42,21.21-23.14,27.45-8,4.63-16.91,7.76-25.71,10.69-7.32,2.44-14,5.58-18.69,11.71-10.38,13.65-22.93,24.9-36.5,35.27-18,13.76-31.49,31.45-42.56,51.07-8.51,15.09-8.51,15.1-25.46,14.87-34.14-.45-68.28-.84-102.42-1.4-37.65-.62-75.29-1.48-112.94-2-4.35-.07-6.34-1.71-8.06-5.65-8.28-19-17.7-37.31-32.32-52.39-5.08-5.25-10.92-9.85-15.47-15.5a85.8,85.8,0,0,1-10.94-17.77c-7.4-16.09-18.71-26.68-36.68-29.74a62.44,62.44,0,0,1-32.06-15.23c-13.93-12.58-18.16-29.06-19.26-46.7a80.68,80.68,0,0,1,1.48-19.34c1.31-7.13,5.42-8.24,10.28-2.76,6.07,6.84,11.35,14.37,17.22,21.39a27.5,27.5,0,0,0,7.49,6.37c4.87,2.69,7.82,1,7.9-4.6.08-6.31-.51-12.64-.66-19-.35-14.14-1.34-28.32-.72-42.43.94-21-.07-41.91-1-62.89-1.14-26.3,1.36-52.55,2.75-78.82,1.63-30.6,1.25-61.29,2.77-91.89.39-7.8,4.25-15.58,7.35-23,1.64-3.92,5.15-7.51,10.24-6.38,4.73,1.06,7.2,5.07,7.74,9.52,1.41,11.7,3.24,23.45,3.24,35.19,0,32.12-1.07,64.24-1.35,96.36-.36,41.08,5.64,81,22.78,118.76C1521.9,649.68,1524.27,653.82,1527.12,659.36Zm169.55,35.91c-1.67,2.67-2.72,4.08-3.48,5.62-3,6-5.62,12.09-8.74,18-7,13.1-24.44,18.94-37.39,12.53-7.2-3.56-16-5.17-24.13-5.33-16.73-.34-33.11,3-48.87,8.78-2.71,1-6,3.19-6.82,5.57-.54,1.64,2.33,5.25,4.51,6.8,12.62,9,25.25,17.92,38.32,26.19,15.59,9.86,31.9,10,47.56.28,8.29-5.13,15.66-11.75,23.43-17.73,3.42-2.63,6.56-5.72,10.25-7.89,7.77-4.59,16.39-3.44,23.25,2.31q13.38,11.22,26.93,22.24c15.32,12.45,40.07,12.19,54.24,2.18,14.37-10.15,23.18-24.08,29.22-40.12.43-1.16-.19-3.65-1.12-4.22-4.88-3-9.74-6.78-15.13-8-8.2-1.81-17-.88-25.24-2.58-18.68-3.84-36.56.3-54.23,4.83-13.28,3.4-21.16.74-26.27-12C1700.87,707.5,1699.13,702.15,1696.67,695.27Zm224.67-49.95,1.91.13a21,21,0,0,0,.86-3.67c1.29-24.4,3.19-48.78,3.58-73.19.28-18.09-1.38-36.21-2.27-54.31a84.89,84.89,0,0,0-1.37-11.36c-.19-1-1.71-1.72-2.62-2.57-.75,1-2.1,1.92-2.13,2.91-.09,3.47.39,6.95.45,10.43q.82,48.4,1.56,96.81C1921.47,622.11,1921.34,633.71,1921.34,645.32ZM1472.2,626.07l2.24.16c3.52-45.85,7-91.7,2.65-137.7l-1.75,0Zm427.64-24.52,1.48-.13V470.85C1896.05,514.39,1897.68,558,1899.84,601.55Zm-317.25-8.86c16.51-11.16,34-10.7,51.56-10.5-6.84-8.6-16.14-10.53-26-10.07C1599,572.54,1585,583.4,1582.59,592.69Zm86.52,13.36-1.57,1.29c.75,1.4,1.26,3,2.3,4.17a123.39,123.39,0,0,0,10.82,11,37.88,37.88,0,0,0,10.42,6.48c4.18,1.62,8.7,1.47,13.17-2.87ZM1434,693.34l-2,.32c-5.48,8.9-.49,18.6-1.94,27.86,4.39,0,13-5.25,13.82-8.25a5.52,5.52,0,0,0-.35-3.8C1440.44,704,1437.18,698.7,1434,693.34ZM1737.47,783l1-1.79L1710.11,756l-1.82,1.56c1,7.9,6.41,13.53,12,18.61C1725,780.52,1730.27,784.88,1737.47,783Zm-222.63-7.95c-1.17-6.83-21.27-31.1-26.5-32C1489,749.23,1510.65,775.4,1514.84,775.08Zm446.27-52.42,1-1V704.7l-1.94-.88c-2.33,3.67-6.06,7.2-6.47,11.09C1953.48,717.2,1958.47,720.06,1961.11,722.66Zm-363.27-2.76-.52-1.83c-6.3-2.78-24.08,3.21-25.23,9.81ZM1868.65,809c5.93-2,26.57-26.26,27.18-31.58C1885.92,787.34,1876.53,796.86,1868.65,809Zm-91.26-114.85,24.51,8.16C1800.11,695.73,1783.12,689.8,1777.39,694.19Z" transform="translate(-1422.3 -177)"/><path class="cls-1" d="M1633,468.78c0,.17,0,.34,0,.5-.22,14.2-10.07,19.79-22.49,12.8-13.38-7.53-19.19-26.44-11.35-39.51,2.58-4.3,7.51-7.21,11.49-10.62a3.11,3.11,0,0,1,2.78-.33c5.58,2.9,11.85,5.24,13.92,12,2.51,8.2,4.62,16.53,6.91,24.8Z" transform="translate(-1422.3 -177)"/><path class="cls-1" d="M1771.15,461.3c-4.09.72-7.17,1.14-10.19,1.81-4.32.95-9.46-.93-10.85-4.13-1.64-3.8.21-8.41,4.6-10.89,7.91-4.48,16.2-7,25.32-4.15,8.53,2.62,17.13,5.06,25.57,8,6,2.07,11.61,11.13,11.5,17.47-.07,4.28-4.23,6.79-9.25,5.07-7.85-2.71-15.54-5.88-23.35-8.72C1779.91,464.07,1775.23,462.65,1771.15,461.3Z" transform="translate(-1422.3 -177)"/></svg>
