<?xml version="1.0" encoding="UTF-8"?>
<svg xmlns="http://www.w3.org/2000/svg" xmlns:xlink="http://www.w3.org/1999/xlink" width="612pt" height="792pt" viewBox="0 0 612 792" version="1.1">
<g id="surface1">
<path style=" stroke:none;fill-rule:nonzero;fill:rgb(0%,48.252869%,36.804199%);fill-opacity:1;" d="M 142.652344 525.050781 L 230 525.050781 L 230 548.71875 L 142.652344 548.71875 Z M 199.753906 471.289062 C 202.105469 471.289062 203.878906 472.277344 205.019531 474.277344 C 205.550781 475.316406 205.828125 476.355469 205.828125 477.390625 C 205.828125 478.328125 205.574219 479.316406 205.09375 480.351562 C 203.902344 482.429688 202.105469 483.464844 199.753906 483.464844 C 197.324219 483.464844 195.578125 482.503906 194.488281 480.578125 C 193.882812 479.644531 193.601562 478.582031 193.601562 477.390625 C 193.601562 476.203125 193.855469 475.164062 194.414062 474.277344 C 195.5 472.277344 197.273438 471.289062 199.753906 471.289062 Z M 172.820312 471.289062 C 175.253906 471.289062 177.050781 472.277344 178.238281 474.277344 C 178.746094 475.214844 178.972656 476.253906 178.972656 477.390625 C 178.972656 478.582031 178.746094 479.59375 178.238281 480.429688 C 177.050781 482.453125 175.253906 483.464844 172.820312 483.464844 C 170.367188 483.464844 168.597656 482.453125 167.558594 480.429688 C 167.027344 479.542969 166.746094 478.53125 166.746094 477.390625 C 166.746094 476.304688 167.027344 475.238281 167.558594 474.203125 C 168.796875 472.253906 170.546875 471.289062 172.820312 471.289062 Z M 214.28125 485.539062 L 221.164062 485.539062 C 221.164062 495.234375 217.75 503.511719 210.863281 510.371094 C 204.003906 517.257812 195.730469 520.699219 186.035156 520.699219 C 176.339844 520.699219 168.0625 517.257812 161.179688 510.371094 C 154.320312 503.511719 150.878906 495.234375 150.878906 485.539062 L 157.789062 485.539062 C 157.789062 493.386719 160.546875 500.046875 166.089844 505.484375 C 171.558594 510.980469 178.214844 513.710938 186.035156 513.710938 C 193.828125 513.710938 200.488281 510.980469 205.980469 505.484375 C 211.523438 499.941406 214.28125 493.3125 214.28125 485.539062 Z M 186.3125 440.007812 C 199.980469 440.007812 211.597656 444.839844 221.242188 454.535156 C 230.9375 464.179688 235.796875 475.847656 235.796875 489.539062 C 235.796875 498.144531 233.847656 505.941406 230 512.902344 L 256.019531 512.902344 L 238.832031 525.582031 L 256.019531 538.339844 L 231.492188 538.339844 L 231.492188 523.433594 L 227.695312 516.675781 C 227.546875 516.925781 227.417969 517.15625 227.265625 517.382812 C 227.113281 517.609375 226.960938 517.8125 226.8125 518.015625 L 229.773438 523.433594 L 224 523.433594 L 224 521.507812 C 223.949219 521.558594 223.367188 522.191406 222.28125 523.433594 L 213.09375 523.433594 C 214.332031 522.394531 215.597656 521.28125 216.890625 520.089844 C 225.316406 511.636719 229.542969 501.460938 229.542969 489.539062 C 229.542969 477.617188 225.316406 467.445312 216.890625 458.988281 C 208.382812 450.484375 198.183594 446.234375 186.3125 446.234375 C 174.316406 446.234375 164.117188 450.484375 155.710938 458.988281 C 147.257812 467.445312 143.03125 477.617188 143.03125 489.539062 C 143.03125 501.460938 147.257812 511.636719 155.710938 520.089844 C 156.878906 521.28125 158.140625 522.394531 159.484375 523.433594 L 150.296875 523.433594 C 149.15625 522.191406 148.574219 521.558594 148.574219 521.507812 L 148.574219 523.433594 L 142.957031 523.433594 L 145.839844 518.089844 C 145.488281 517.6875 145.15625 517.230469 144.878906 516.675781 L 141.082031 523.433594 L 141.082031 538.339844 L 116.554688 538.339844 L 133.742188 525.582031 L 116.554688 512.902344 L 142.574219 512.902344 C 138.730469 505.941406 136.78125 498.144531 136.78125 489.539062 C 136.78125 475.847656 141.640625 464.179688 151.335938 454.535156 C 160.925781 444.839844 172.59375 440.007812 186.3125 440.007812 Z M 157.914062 531.152344 L 157.914062 542.644531 L 167.632812 542.644531 L 167.632812 540.035156 L 161.484375 540.035156 L 161.484375 537.730469 L 167.050781 537.730469 L 167.050781 535.378906 L 161.484375 535.378906 L 161.484375 533.582031 L 167.480469 533.582031 L 167.480469 531.152344 Z M 171.558594 531.152344 L 171.558594 542.644531 L 180.695312 542.644531 L 180.695312 539.808594 L 175.125 539.808594 L 175.125 531.152344 Z M 184.390625 531.152344 L 184.390625 542.644531 L 188.035156 542.644531 L 188.035156 531.152344 Z M 191.730469 531.152344 L 191.730469 533.960938 L 195.375 533.960938 L 195.375 542.644531 L 198.941406 542.644531 L 198.941406 533.960938 L 202.5625 533.960938 L 202.5625 531.152344 Z M 206.132812 531.152344 L 206.132812 542.644531 L 215.824219 542.644531 L 215.824219 540.035156 L 209.675781 540.035156 L 209.675781 537.730469 L 215.242188 537.730469 L 215.242188 535.378906 L 209.675781 535.378906 L 209.675781 533.582031 L 215.699219 533.582031 L 215.699219 531.152344 L 206.132812 531.152344 "/>
</g>
</svg>
